<?xml version="1.0" encoding="UTF-8" standalone="no"?>
<!DOCTYPE svg PUBLIC "-//W3C//DTD SVG 1.1//EN" "http://www.w3.org/Graphics/SVG/1.1/DTD/svg11.dtd">
<svg version="1.1" xmlns="http://www.w3.org/2000/svg" xmlns:xlink="http://www.w3.org/1999/xlink" preserveAspectRatio="xMidYMid meet" viewBox="0 0 450 800" width="450" height="800"><defs><path d="M82.27 518.75L290.53 638.97L276.25 663.71L67.98 543.49L82.27 518.75Z" id="a3Fjq56cbI"></path><path d="M104.96 447.71L341.78 489.48L336.82 517.61L100 475.84L104.96 447.71Z" id="b8xWHJZWKa"></path><path d="M63.95 550.48L248.16 705.07L229.8 726.96L45.59 572.37L63.95 550.48Z" id="bCPZgT1Xo"></path><path d="M97.17 485.7L323.15 567.94L313.38 594.79L87.4 512.55L97.17 485.7Z" id="b1QJcSJwEX"></path><path d="M39.19 578.33L193.75 762.56L171.86 780.92L17.3 596.7L39.19 578.33Z" id="a1kjKryeCm"></path><path d="M104.76 368.36L345.24 368.38L345.24 396.96L104.76 396.94L104.76 368.36Z" id="f7ZZ8xXwp"></path><path d="M113.18 287.75L350 329.52L345.04 357.66L108.22 315.89L113.18 287.75Z" id="bhXsvVjSj"></path><path d="M135.56 209.44L361.53 291.7L351.75 318.55L125.78 236.29L135.56 209.44Z" id="c1i7ZkEGwj"></path><path d="M172.71 137.66L380.96 257.92L366.67 282.66L158.42 162.41L172.71 137.66Z" id="b2DDrluTAH"></path><path d="M220.21 75.48L404.41 230.07L386.04 251.96L201.84 97.37L220.21 75.48Z" id="ar0ePywJL"></path><path d="M278.14 22L432.7 206.23L410.81 224.59L256.25 40.36L278.14 22Z" id="g7aarltL6t"></path><path d="M104.76 407.66L345.24 407.68L345.24 436.25L104.76 436.23L104.76 407.66Z" id="ax6OiMYGh"></path></defs><g><g><g><g><use xlink:href="#a3Fjq56cbI" opacity="1" fill="#ff9900" fill-opacity="1"></use></g><g><use xlink:href="#b8xWHJZWKa" opacity="1" fill="#ff9900" fill-opacity="1"></use></g><g><use xlink:href="#bCPZgT1Xo" opacity="1" fill="#ff9900" fill-opacity="1"></use></g><g><use xlink:href="#b1QJcSJwEX" opacity="1" fill="#ff9900" fill-opacity="1"></use></g><g><use xlink:href="#a1kjKryeCm" opacity="1" fill="#ff9900" fill-opacity="1"></use></g><g><use xlink:href="#f7ZZ8xXwp" opacity="1" fill="#ff9900" fill-opacity="1"></use></g><g><use xlink:href="#bhXsvVjSj" opacity="1" fill="#ff9900" fill-opacity="1"></use></g><g><use xlink:href="#c1i7ZkEGwj" opacity="1" fill="#ff9900" fill-opacity="1"></use></g><g><use xlink:href="#b2DDrluTAH" opacity="1" fill="#ff9900" fill-opacity="1"></use></g><g><use xlink:href="#ar0ePywJL" opacity="1" fill="#ff9900" fill-opacity="1"></use></g><g><use xlink:href="#g7aarltL6t" opacity="1" fill="#ff9900" fill-opacity="1"></use></g><g><use xlink:href="#ax6OiMYGh" opacity="1" fill="#ff9900" fill-opacity="1"></use></g></g></g></g></svg>