<?xml version="1.0" encoding="UTF-8" standalone="no"?>
<!DOCTYPE svg PUBLIC "-//W3C//DTD SVG 1.1//EN" "http://www.w3.org/Graphics/SVG/1.1/DTD/svg11.dtd">
<svg version="1.1" xmlns="http://www.w3.org/2000/svg" xmlns:xlink="http://www.w3.org/1999/xlink" preserveAspectRatio="xMidYMid meet" viewBox="0 0 1000 700" width="1000" height="700"><defs><path d="M569.64 358.22L521.9 358.22L546.83 324.22L569.64 358.22Z" id="eM721kc01"></path><path d="M886.32 447.97L855.2 467.97L850.4 417.25L879.65 423.22L886.32 447.97Z" id="dCATB5gRM"></path><path d="M788.54 570.58L500 475.02L232.98 570.58L99.65 415.02L137.43 355.02L188.54 326.14L288.54 297.25L359.65 263.91L444.09 263.91L452.98 315.02L505.33 363.91L546.83 341.69L546.83 263.91L650.76 272.8L810.76 315.02L892.98 399.47L788.54 570.58Z" id="a2NQX7pBeb"></path><path d="M446.32 239.47L399.89 232.8L328.54 232.8L301.87 283.91L301.87 375.02L328.54 363.91L328.54 417.25L370.76 392.25L386.32 466.14L347.29 466.14L399.89 499.47L446.32 488.36L480.33 442.25L446.32 448.22L446.32 381.69L492.72 397.25L480.33 363.91L446.32 328.36L446.32 270.58L480.33 255.02L472.98 315.02L500 343.91L524.09 315.02L524.09 263.91L496.32 232.8L552.83 239.47L564.09 308.36L535.2 357.25L524.09 392.25L564.09 381.69L564.09 452.97L524.09 442.25L535.2 466.14L569.64 497.72L615.2 492.97L658.25 459.47L615.2 459.47L624.09 381.69L683.25 417.25L668.54 363.91L695.2 375.02L708.25 297.25L688.54 239.47L648.54 223.91L648.54 181.69L724.09 215.25L744.09 283.91L724.09 375.02L749.5 392.25L708.25 435.02L761.87 435.02L729.5 497.72L695.2 479.47L712.98 524.47L755.2 549.47L797.43 524.47L769.5 515.47L813.95 452.97L838.95 488.36L846.32 428.36L870.76 442.25L892.98 375.02L892.98 315.02L846.32 277.25L797.43 277.25L788.54 239.47L846.32 239.47L915.2 277.25L939.65 357.25L906.32 435.02L729.5 666.14L569.64 615.02L463.83 615.02L282.14 666.14L108.54 452.97L70.76 375.02L77.43 315.02L99.65 270.58L148.26 239.47L219.65 239.47L212.98 277.25L168.54 277.25L112.98 315.02L108.54 381.69L137.43 442.25L155.2 428.36L168.54 488.36L198.26 448.22L232.98 515.47L219.65 537.72L268.54 543.91L297.29 524.47L312.98 473.22L277.43 499.47L242.14 435.02L297.29 428.36L255.2 392.25L282.14 381.69L268.54 315.02L262.14 255.02L297.29 201.69L370.76 188.36L500 215.25L446.32 239.47Z" id="a1j1qulUXD"></path><path d="M264.65 243.97C264.65 255.01 255.69 263.97 244.65 263.97C233.61 263.97 224.65 255.01 224.65 243.97C224.65 232.93 233.61 223.97 244.65 223.97C255.69 223.97 264.65 232.93 264.65 243.97Z" id="g5C7h29iVG"></path><path d="M516.51 37.25L516.57 37.26L516.63 37.27L516.68 37.28L516.73 37.29L516.79 37.3L516.84 37.32L516.89 37.34L516.94 37.36L516.99 37.38L517.04 37.4L517.08 37.43L517.13 37.45L517.17 37.48L517.22 37.51L517.26 37.55L517.3 37.58L517.34 37.62L517.38 37.65L517.42 37.69L517.45 37.73L517.48 37.77L517.52 37.81L517.55 37.86L517.58 37.9L517.6 37.95L517.63 37.99L517.65 38.04L517.68 38.09L517.7 38.14L517.71 38.19L517.73 38.25L517.74 38.3L517.76 38.35L517.77 38.41L517.77 38.46L517.78 38.52L517.78 38.57L517.78 38.63L517.78 66.3L545.45 66.3L545.51 66.3L545.56 66.3L545.62 66.31L545.68 66.32L545.73 66.33L545.78 66.34L545.84 66.35L545.89 66.37L545.94 66.39L545.99 66.41L546.04 66.43L546.09 66.45L546.13 66.48L546.18 66.5L546.22 66.53L546.27 66.56L546.31 66.6L546.35 66.63L546.39 66.67L546.43 66.7L546.47 66.74L546.5 66.78L546.53 66.82L546.57 66.86L546.6 66.91L546.63 66.95L546.65 67L546.68 67.04L546.7 67.09L546.73 67.14L546.75 67.19L546.76 67.24L546.78 67.3L546.79 67.35L546.81 67.4L546.82 67.46L546.82 67.51L546.83 67.57L546.83 67.62L546.83 67.68L546.83 89.81L546.83 89.87L546.83 89.93L546.82 89.98L546.82 90.04L546.81 90.09L546.79 90.15L546.78 90.2L546.76 90.25L546.75 90.3L546.73 90.35L546.7 90.4L546.68 90.45L546.65 90.5L546.63 90.54L546.6 90.59L546.57 90.63L546.53 90.67L546.5 90.71L546.47 90.75L546.43 90.79L546.39 90.83L546.35 90.86L546.31 90.9L546.27 90.93L546.22 90.96L546.18 90.99L546.13 91.02L546.09 91.04L546.04 91.07L545.99 91.09L545.94 91.11L545.89 91.13L545.84 91.14L545.78 91.16L545.73 91.17L545.68 91.18L545.62 91.19L545.56 91.19L545.51 91.2L545.45 91.2L517.78 91.2L517.78 118.86L517.78 118.92L517.78 118.98L517.77 119.03L517.77 119.09L517.76 119.14L517.74 119.2L517.73 119.25L517.71 119.3L517.7 119.35L517.68 119.4L517.65 119.45L517.63 119.5L517.6 119.55L517.58 119.59L517.55 119.64L517.52 119.68L517.48 119.72L517.45 119.76L517.42 119.8L517.38 119.84L517.34 119.88L517.3 119.91L517.26 119.95L517.22 119.98L517.17 120.01L517.13 120.04L517.08 120.07L517.04 120.09L516.99 120.12L516.94 120.14L516.89 120.16L516.84 120.18L516.79 120.19L516.73 120.21L516.68 120.22L516.63 120.23L516.57 120.24L516.51 120.24L516.46 120.25L516.4 120.25L494.27 120.25L494.21 120.25L494.15 120.24L494.1 120.24L494.04 120.23L493.99 120.22L493.94 120.21L493.88 120.19L493.83 120.18L493.78 120.16L493.73 120.14L493.68 120.12L493.63 120.09L493.58 120.07L493.54 120.04L493.49 120.01L493.45 119.98L493.41 119.95L493.37 119.91L493.33 119.88L493.29 119.84L493.25 119.8L493.22 119.76L493.18 119.72L493.15 119.68L493.12 119.64L493.09 119.59L493.06 119.55L493.04 119.5L493.01 119.45L492.99 119.4L492.97 119.35L492.95 119.3L492.94 119.25L492.92 119.2L492.91 119.14L492.9 119.09L492.89 119.03L492.89 118.98L492.89 118.92L492.88 118.86L492.88 91.2L465.22 91.2L465.16 91.2L465.1 91.19L465.05 91.19L464.99 91.18L464.94 91.17L464.89 91.16L464.83 91.14L464.78 91.13L464.73 91.11L464.68 91.09L464.63 91.07L464.58 91.04L464.53 91.02L464.49 90.99L464.44 90.96L464.4 90.93L464.36 90.9L464.32 90.86L464.28 90.83L464.24 90.79L464.2 90.75L464.17 90.71L464.13 90.67L464.1 90.63L464.07 90.59L464.04 90.54L464.01 90.5L463.99 90.45L463.96 90.4L463.94 90.35L463.92 90.3L463.9 90.25L463.89 90.2L463.87 90.15L463.86 90.09L463.85 90.04L463.84 89.98L463.84 89.93L463.84 89.87L463.83 89.81L463.83 67.68L463.84 67.62L463.84 67.57L463.84 67.51L463.85 67.46L463.86 67.4L463.87 67.35L463.89 67.3L463.9 67.24L463.92 67.19L463.94 67.14L463.96 67.09L463.99 67.04L464.01 67L464.04 66.95L464.07 66.91L464.1 66.86L464.13 66.82L464.17 66.78L464.2 66.74L464.24 66.7L464.28 66.67L464.32 66.63L464.36 66.6L464.4 66.56L464.44 66.53L464.49 66.5L464.53 66.48L464.58 66.45L464.63 66.43L464.68 66.41L464.73 66.39L464.78 66.37L464.83 66.35L464.89 66.34L464.94 66.33L464.99 66.32L465.05 66.31L465.1 66.3L465.16 66.3L465.22 66.3L492.88 66.3L492.88 38.63L492.89 38.57L492.89 38.52L492.89 38.46L492.9 38.41L492.91 38.35L492.92 38.3L492.94 38.25L492.95 38.19L492.97 38.14L492.99 38.09L493.01 38.04L493.04 37.99L493.06 37.95L493.09 37.9L493.12 37.86L493.15 37.81L493.18 37.77L493.22 37.73L493.25 37.69L493.29 37.65L493.33 37.62L493.37 37.58L493.41 37.55L493.45 37.51L493.49 37.48L493.54 37.45L493.58 37.43L493.63 37.4L493.68 37.38L493.73 37.36L493.78 37.34L493.83 37.32L493.88 37.3L493.94 37.29L493.99 37.28L494.04 37.27L494.1 37.26L494.15 37.25L494.21 37.25L494.27 37.25L516.4 37.25L516.46 37.25L516.51 37.25Z" id="aXF4tf3d"></path><path d="M198.26 524.47C198.26 538.27 187.06 549.47 173.26 549.47C159.46 549.47 148.26 538.27 148.26 524.47C148.26 510.67 159.46 499.47 173.26 499.47C187.06 499.47 198.26 510.67 198.26 524.47Z" id="aieV9d7SV"></path><path d="M347.29 448.22C347.29 462.02 336.09 473.22 322.29 473.22C308.49 473.22 297.29 462.02 297.29 448.22C297.29 434.42 308.49 423.22 322.29 423.22C336.09 423.22 347.29 434.42 347.29 448.22Z" id="a7WVLKHvY"></path><path d="M530.33 417.25C530.33 431.05 519.13 442.25 505.33 442.25C491.54 442.25 480.33 431.05 480.33 417.25C480.33 403.45 491.54 392.25 505.33 392.25C519.13 392.25 530.33 403.45 530.33 417.25Z" id="bxvGnzLrV"></path><path d="M708.25 448.22C708.25 462.02 697.05 473.22 683.25 473.22C669.45 473.22 658.25 462.02 658.25 448.22C658.25 434.42 669.45 423.22 683.25 423.22C697.05 423.22 708.25 434.42 708.25 448.22Z" id="d4cNvK8B0"></path><path d="M863.95 524.47C863.95 538.27 852.74 549.47 838.95 549.47C825.15 549.47 813.95 538.27 813.95 524.47C813.95 510.67 825.15 499.47 838.95 499.47C852.74 499.47 863.95 510.67 863.95 524.47Z" id="aG6AqSDBD"></path><path d="M507.98 189.36L517.61 195.88L484.65 244.58L475.02 238.06L507.98 189.36Z" id="acVtygi45"></path><path d="M769.5 515.47C769.5 526.51 760.54 535.47 749.5 535.47C738.46 535.47 729.5 526.51 729.5 515.47C729.5 504.43 738.46 495.47 749.5 495.47C760.54 495.47 769.5 504.43 769.5 515.47Z" id="bg5NMvk3j"></path><path d="M609.64 473.22C609.64 484.26 600.68 493.22 589.64 493.22C578.6 493.22 569.64 484.26 569.64 473.22C569.64 462.18 578.6 453.22 589.64 453.22C600.68 453.22 609.64 462.18 609.64 473.22Z" id="kr3N0uHlc"></path><path d="M580.11 181.69L545.49 205.16L447.65 230.83L447.65 275.72L538.57 243.97L595.1 217.97L651.65 223.97L651.65 181.69L580.11 181.69Z" id="bdsCp85NZ"></path><path d="M439.89 472.97C439.89 484.01 430.93 492.97 419.89 492.97C408.85 492.97 399.89 484.01 399.89 472.97C399.89 461.93 408.85 452.97 419.89 452.97C430.93 452.97 439.89 461.93 439.89 472.97Z" id="bsR2ZbI86"></path><path d="M282.14 517.72C282.14 528.76 273.18 537.72 262.14 537.72C251.1 537.72 242.14 528.76 242.14 517.72C242.14 506.68 251.1 497.72 262.14 497.72C273.18 497.72 282.14 506.68 282.14 517.72Z" id="b5YjKAGWZx"></path><path d="M112.65 467.97C112.65 479.01 103.69 487.97 92.65 487.97C81.61 487.97 72.65 479.01 72.65 467.97C72.65 456.93 81.61 447.97 92.65 447.97C103.69 447.97 112.65 456.93 112.65 467.97Z" id="d1vxS8F9KS"></path><path d="M250.76 657.25L226.32 623.91L262.14 595.02L282.14 630.58L250.76 657.25Z" id="a2aNjptqJz"></path><path d="M399.89 561.69L408.54 595.02L347.29 608.36L335.2 570.58L399.89 561.69Z" id="c1TliWVwc"></path><path d="M535.2 543.91L530.33 585.02L468.54 585.02L468.54 543.91L535.2 543.91Z" id="a2QB8ygfbh"></path><path d="M552.83 169.47C552.83 195.69 531.55 216.97 505.33 216.97C479.12 216.97 457.83 195.69 457.83 169.47C457.83 143.25 479.12 121.97 505.33 121.97C531.55 121.97 552.83 143.25 552.83 169.47Z" id="e71STmat6"></path><path d="M670.76 570.58L666.32 608.36L599.65 595.02L609.64 549.47L670.76 570.58Z" id="fxWnh6bqD"></path><path d="M749.5 657.25L724.09 626.14L749.5 595.02L777.43 626.14L749.5 657.25Z" id="a6CA5sFsO"></path><path d="M551.83 159.47L463.83 159.47L468.48 139.47L534.4 139.47L551.83 159.47Z" id="a4BEKOO5jh"></path><path d="M84.9 424.72C84.9 435.76 75.94 444.72 64.9 444.72C53.86 444.72 44.9 435.76 44.9 424.72C44.9 413.68 53.86 404.72 64.9 404.72C75.94 404.72 84.9 413.68 84.9 424.72Z" id="dgkqr5blR"></path><path d="M68.15 376.47C68.15 387.51 59.19 396.47 48.15 396.47C37.11 396.47 28.15 387.51 28.15 376.47C28.15 365.43 37.11 356.47 48.15 356.47C59.19 356.47 68.15 365.43 68.15 376.47Z" id="a1oS523BEX"></path><path d="M71.4 324.22C71.4 335.26 62.44 344.22 51.4 344.22C40.36 344.22 31.4 335.26 31.4 324.22C31.4 313.18 40.36 304.22 51.4 304.22C62.44 304.22 71.4 313.18 71.4 324.22Z" id="d1wg778IoH"></path><path d="M92.65 272.97C92.65 284.01 83.69 292.97 72.65 292.97C61.61 292.97 52.65 284.01 52.65 272.97C52.65 261.93 61.61 252.97 72.65 252.97C83.69 252.97 92.65 261.93 92.65 272.97Z" id="ft2vH3447"></path><path d="M131.9 233.72C131.9 244.76 122.94 253.72 111.9 253.72C100.86 253.72 91.9 244.76 91.9 233.72C91.9 222.68 100.86 213.72 111.9 213.72C122.94 213.72 131.9 222.68 131.9 233.72Z" id="bRxEFradj"></path><path d="M178.15 214.47C178.15 225.51 169.19 234.47 158.15 234.47C147.11 234.47 138.15 225.51 138.15 214.47C138.15 203.43 147.11 194.47 158.15 194.47C169.19 194.47 178.15 203.43 178.15 214.47Z" id="ejWhCvB3J"></path><path d="M227.4 216.22C227.4 227.26 218.44 236.22 207.4 236.22C196.36 236.22 187.4 227.26 187.4 216.22C187.4 205.18 196.36 196.22 207.4 196.22C218.44 196.22 227.4 205.18 227.4 216.22Z" id="aElrX38M6"></path><path d="M223.9 298.72C223.9 309.76 232.86 318.72 243.9 318.72C254.94 318.72 263.9 309.76 263.9 298.72C263.9 287.68 254.94 278.72 243.9 278.72C232.86 278.72 223.9 287.68 223.9 298.72Z" id="ddUWSfxPH"></path><path d="M269.15 351.47C269.15 362.51 260.19 371.47 249.15 371.47C238.11 371.47 229.15 362.51 229.15 351.47C229.15 340.43 238.11 331.47 249.15 331.47C260.19 331.47 269.15 340.43 269.15 351.47Z" id="bXWQktdx2"></path><path d="M295.9 194.72C295.9 205.76 286.94 214.72 275.9 214.72C264.86 214.72 255.9 205.76 255.9 194.72C255.9 183.68 264.86 174.72 275.9 174.72C286.94 174.72 295.9 183.68 295.9 194.72Z" id="aetrRWOp3"></path><path d="M344.15 169.47C344.15 180.51 335.19 189.47 324.15 189.47C313.11 189.47 304.15 180.51 304.15 169.47C304.15 158.43 313.11 149.47 324.15 149.47C335.19 149.47 344.15 158.43 344.15 169.47Z" id="b8CCcOuqF"></path><path d="M396.4 164.22C396.4 175.26 387.44 184.22 376.4 184.22C365.36 184.22 356.4 175.26 356.4 164.22C356.4 153.18 365.36 144.22 376.4 144.22C387.44 144.22 396.4 153.18 396.4 164.22Z" id="a1mieSHF9Z"></path><path d="M447.65 172.97C447.65 184.01 438.69 192.97 427.65 192.97C416.61 192.97 407.65 184.01 407.65 172.97C407.65 161.93 416.61 152.97 427.65 152.97C438.69 152.97 447.65 161.93 447.65 172.97Z" id="b1sGLpbze3"></path><path d="M521.9 264.72C521.9 275.76 512.94 284.72 501.9 284.72C490.86 284.72 481.9 275.76 481.9 264.72C481.9 253.68 490.86 244.72 501.9 244.72C512.94 244.72 521.9 253.68 521.9 264.72Z" id="a2C3jZUxw"></path><path d="M524.15 311.47C524.15 322.51 515.19 331.47 504.15 331.47C493.11 331.47 484.15 322.51 484.15 311.47C484.15 300.43 493.11 291.47 504.15 291.47C515.19 291.47 524.15 300.43 524.15 311.47Z" id="dAwMqZC47"></path><path d="M600.4 157.22C600.4 168.26 591.44 177.22 580.4 177.22C569.36 177.22 560.4 168.26 560.4 157.22C560.4 146.18 569.36 137.22 580.4 137.22C591.44 137.22 600.4 146.18 600.4 157.22Z" id="c3Wstx1T3s"></path><path d="M651.65 157.97C651.65 169.01 642.69 177.97 631.65 177.97C620.61 177.97 611.65 169.01 611.65 157.97C611.65 146.93 620.61 137.97 631.65 137.97C642.69 137.97 651.65 146.93 651.65 157.97Z" id="a2tJwyPizy"></path><path d="M701.9 171.72C701.9 182.76 692.94 191.72 681.9 191.72C670.86 191.72 661.9 182.76 661.9 171.72C661.9 160.68 670.86 151.72 681.9 151.72C692.94 151.72 701.9 160.68 701.9 171.72Z" id="e30Le4l4C5"></path><path d="M755.15 194.47C755.15 205.51 746.19 214.47 735.15 214.47C724.11 214.47 715.15 205.51 715.15 194.47C715.15 183.43 724.11 174.47 735.15 174.47C746.19 174.47 755.15 183.43 755.15 194.47Z" id="e7tJQxJp3"></path><path d="M782.4 244.22C782.4 255.26 773.44 264.22 762.4 264.22C751.36 264.22 742.4 255.26 742.4 244.22C742.4 233.18 751.36 224.22 762.4 224.22C773.44 224.22 782.4 233.18 782.4 244.22Z" id="b5hKYe7611"></path><path d="M787.65 299.97C787.65 311.01 778.69 319.97 767.65 319.97C756.61 319.97 747.65 311.01 747.65 299.97C747.65 288.93 756.61 279.97 767.65 279.97C778.69 279.97 787.65 288.93 787.65 299.97Z" id="a3djbhmAHU"></path><path d="M780.9 350.72C780.9 361.76 771.94 370.72 760.9 370.72C749.86 370.72 740.9 361.76 740.9 350.72C740.9 339.68 749.86 330.72 760.9 330.72C771.94 330.72 780.9 339.68 780.9 350.72Z" id="d8guTxQeX5"></path><path d="M820.15 215.47C820.15 226.51 811.19 235.47 800.15 235.47C789.11 235.47 780.15 226.51 780.15 215.47C780.15 204.43 789.11 195.47 800.15 195.47C811.19 195.47 820.15 204.43 820.15 215.47Z" id="a51j9gGBh5"></path><path d="M870.4 216.22C870.4 227.26 861.44 236.22 850.4 236.22C839.36 236.22 830.4 227.26 830.4 216.22C830.4 205.18 839.36 196.22 850.4 196.22C861.44 196.22 870.4 205.18 870.4 216.22Z" id="cim2nB7BH"></path><path d="M919.65 237.97C919.65 249.01 910.69 257.97 899.65 257.97C888.61 257.97 879.65 249.01 879.65 237.97C879.65 226.93 888.61 217.97 899.65 217.97C910.69 217.97 919.65 226.93 919.65 237.97Z" id="a1vIP05Y7L"></path><path d="M957.9 275.72C957.9 286.76 948.94 295.72 937.9 295.72C926.86 295.72 917.9 286.76 917.9 275.72C917.9 264.68 926.86 255.72 937.9 255.72C948.94 255.72 957.9 264.68 957.9 275.72Z" id="amcsWmCTc"></path><path d="M976.15 324.47C976.15 335.51 967.19 344.47 956.15 344.47C945.11 344.47 936.15 335.51 936.15 324.47C936.15 313.43 945.11 304.47 956.15 304.47C967.19 304.47 976.15 313.43 976.15 324.47Z" id="bdngpdkT5"></path><path d="M977.4 378.22C977.4 389.26 968.44 398.22 957.4 398.22C946.36 398.22 937.4 389.26 937.4 378.22C937.4 367.18 946.36 358.22 957.4 358.22C968.44 358.22 977.4 367.18 977.4 378.22Z" id="a8KisLscy"></path><path d="M956.65 426.97C956.65 438.01 947.69 446.97 936.65 446.97C925.61 446.97 916.65 438.01 916.65 426.97C916.65 415.93 925.61 406.97 936.65 406.97C947.69 406.97 956.65 415.93 956.65 426.97Z" id="b1H2swoN7w"></path><path d="M930.9 467.72C930.9 478.76 921.94 487.72 910.9 487.72C899.86 487.72 890.9 478.76 890.9 467.72C890.9 456.68 899.86 447.72 910.9 447.72C921.94 447.72 930.9 456.68 930.9 467.72Z" id="a37XSNDWEr"></path><path d="M438.7 229.27L450.23 227.75L459.63 298.94L448.11 300.46L438.7 229.27Z" id="a1eHfImSlh"></path><path d="M564.5 207.09L574.13 213.6L541.17 262.31L531.54 255.79L564.5 207.09Z" id="c5QBwnv9c"></path><path d="M704.72 207.15L699.68 217.63L646.67 192.17L651.7 181.69L704.72 207.15Z" id="b1j6TDiHN"></path></defs><g><g><g><use xlink:href="#eM721kc01" opacity="1" fill="#8b0d11" fill-opacity="1"></use></g><g><use xlink:href="#dCATB5gRM" opacity="1" fill="#8b0d11" fill-opacity="1"></use></g><g><use xlink:href="#a2NQX7pBeb" opacity="1" fill="#8b0d11" fill-opacity="1"></use></g><g><use xlink:href="#a1j1qulUXD" opacity="1" fill="#fcb507" fill-opacity="1"></use></g><g><use xlink:href="#g5C7h29iVG" opacity="1" fill="#9ca1a4" fill-opacity="1"></use></g><g><use xlink:href="#aXF4tf3d" opacity="1" fill="#fcb507" fill-opacity="1"></use></g><g><use xlink:href="#aieV9d7SV" opacity="1" fill="#9ca1a4" fill-opacity="1"></use></g><g><use xlink:href="#a7WVLKHvY" opacity="1" fill="#9ca1a4" fill-opacity="1"></use></g><g><use xlink:href="#bxvGnzLrV" opacity="1" fill="#9ca1a4" fill-opacity="1"></use></g><g><use xlink:href="#d4cNvK8B0" opacity="1" fill="#9ca1a4" fill-opacity="1"></use></g><g><use xlink:href="#aG6AqSDBD" opacity="1" fill="#9ca1a4" fill-opacity="1"></use></g><g><use xlink:href="#acVtygi45" opacity="1" fill="#fcb507" fill-opacity="1"></use></g><g><use xlink:href="#bg5NMvk3j" opacity="1" fill="#9ca1a4" fill-opacity="1"></use></g><g><use xlink:href="#kr3N0uHlc" opacity="1" fill="#9ca1a4" fill-opacity="1"></use></g><g><use xlink:href="#bdsCp85NZ" opacity="1" fill="#fcb507" fill-opacity="1"></use></g><g><use xlink:href="#bsR2ZbI86" opacity="1" fill="#9ca1a4" fill-opacity="1"></use></g><g><use xlink:href="#b5YjKAGWZx" opacity="1" fill="#9ca1a4" fill-opacity="1"></use></g><g><use xlink:href="#d1vxS8F9KS" opacity="1" fill="#9ca1a4" fill-opacity="1"></use></g><g><use xlink:href="#a2aNjptqJz" opacity="1" fill="#021250" fill-opacity="1"></use></g><g><use xlink:href="#c1TliWVwc" opacity="1" fill="#8b0d11" fill-opacity="1"></use></g><g><use xlink:href="#a2QB8ygfbh" opacity="1" fill="#021250" fill-opacity="1"></use></g><g><use xlink:href="#e71STmat6" opacity="1" fill="#021250" fill-opacity="1"></use></g><g><use xlink:href="#fxWnh6bqD" opacity="1" fill="#8b0d11" fill-opacity="1"></use></g><g><use xlink:href="#a6CA5sFsO" opacity="1" fill="#021250" fill-opacity="1"></use></g><g><use xlink:href="#a4BEKOO5jh" opacity="1" fill="#fcb507" fill-opacity="1"></use></g><g><use xlink:href="#dgkqr5blR" opacity="1" fill="#9ca1a4" fill-opacity="1"></use></g><g><use xlink:href="#a1oS523BEX" opacity="1" fill="#9ca1a4" fill-opacity="1"></use></g><g><use xlink:href="#d1wg778IoH" opacity="1" fill="#9ca1a4" fill-opacity="1"></use></g><g><use xlink:href="#ft2vH3447" opacity="1" fill="#9ca1a4" fill-opacity="1"></use></g><g><use xlink:href="#bRxEFradj" opacity="1" fill="#9ca1a4" fill-opacity="1"></use></g><g><use xlink:href="#ejWhCvB3J" opacity="1" fill="#9ca1a4" fill-opacity="1"></use></g><g><use xlink:href="#aElrX38M6" opacity="1" fill="#9ca1a4" fill-opacity="1"></use></g><g><use xlink:href="#ddUWSfxPH" opacity="1" fill="#9ca1a4" fill-opacity="1"></use></g><g><use xlink:href="#bXWQktdx2" opacity="1" fill="#9ca1a4" fill-opacity="1"></use></g><g><use xlink:href="#aetrRWOp3" opacity="1" fill="#9ca1a4" fill-opacity="1"></use></g><g><use xlink:href="#b8CCcOuqF" opacity="1" fill="#9ca1a4" fill-opacity="1"></use></g><g><use xlink:href="#a1mieSHF9Z" opacity="1" fill="#9ca1a4" fill-opacity="1"></use></g><g><use xlink:href="#b1sGLpbze3" opacity="1" fill="#9ca1a4" fill-opacity="1"></use></g><g><use xlink:href="#a2C3jZUxw" opacity="1" fill="#9ca1a4" fill-opacity="1"></use></g><g><use xlink:href="#dAwMqZC47" opacity="1" fill="#9ca1a4" fill-opacity="1"></use></g><g><use xlink:href="#c3Wstx1T3s" opacity="1" fill="#9ca1a4" fill-opacity="1"></use></g><g><use xlink:href="#a2tJwyPizy" opacity="1" fill="#9ca1a4" fill-opacity="1"></use></g><g><use xlink:href="#e30Le4l4C5" opacity="1" fill="#9ca1a4" fill-opacity="1"></use></g><g><use xlink:href="#e7tJQxJp3" opacity="1" fill="#9ca1a4" fill-opacity="1"></use></g><g><use xlink:href="#b5hKYe7611" opacity="1" fill="#9ca1a4" fill-opacity="1"></use></g><g><use xlink:href="#a3djbhmAHU" opacity="1" fill="#9ca1a4" fill-opacity="1"></use></g><g><use xlink:href="#d8guTxQeX5" opacity="1" fill="#9ca1a4" fill-opacity="1"></use></g><g><use xlink:href="#a51j9gGBh5" opacity="1" fill="#9ca1a4" fill-opacity="1"></use></g><g><use xlink:href="#cim2nB7BH" opacity="1" fill="#9ca1a4" fill-opacity="1"></use></g><g><use xlink:href="#a1vIP05Y7L" opacity="1" fill="#9ca1a4" fill-opacity="1"></use></g><g><use xlink:href="#amcsWmCTc" opacity="1" fill="#9ca1a4" fill-opacity="1"></use></g><g><use xlink:href="#bdngpdkT5" opacity="1" fill="#9ca1a4" fill-opacity="1"></use></g><g><use xlink:href="#a8KisLscy" opacity="1" fill="#9ca1a4" fill-opacity="1"></use></g><g><use xlink:href="#b1H2swoN7w" opacity="1" fill="#9ca1a4" fill-opacity="1"></use></g><g><use xlink:href="#a37XSNDWEr" opacity="1" fill="#9ca1a4" fill-opacity="1"></use></g><g><use xlink:href="#a1eHfImSlh" opacity="1" fill="#fcb507" fill-opacity="1"></use></g><g><use xlink:href="#c5QBwnv9c" opacity="1" fill="#fcb507" fill-opacity="1"></use></g><g><use xlink:href="#b1j6TDiHN" opacity="1" fill="#fcb507" fill-opacity="1"></use></g></g></g></svg>